<svg xmlns="http://www.w3.org/2000/svg" viewBox="0 0 600 400" aria-hidden="true" focusable="false">
  <g stroke="#1B2A5E" stroke-opacity="0.18" stroke-width="0.6" fill="none">
    <line x1="60" y1="80" x2="180" y2="40"/>
    <line x1="60" y1="80" x2="200" y2="160"/>
    <line x1="180" y1="40" x2="320" y2="100"/>
    <line x1="180" y1="40" x2="260" y2="200"/>
    <line x1="200" y1="160" x2="320" y2="100"/>
    <line x1="200" y1="160" x2="140" y2="280"/>
    <line x1="200" y1="160" x2="260" y2="200"/>
    <line x1="320" y1="100" x2="440" y2="60"/>
    <line x1="320" y1="100" x2="480" y2="180"/>
    <line x1="260" y1="200" x2="380" y2="260"/>
    <line x1="260" y1="200" x2="480" y2="180"/>
    <line x1="140" y1="280" x2="240" y2="340"/>
    <line x1="140" y1="280" x2="380" y2="260"/>
    <line x1="380" y1="260" x2="500" y2="320"/>
    <line x1="380" y1="260" x2="480" y2="180"/>
    <line x1="240" y1="340" x2="500" y2="320"/>
    <line x1="440" y1="60" x2="540" y2="120"/>
    <line x1="480" y1="180" x2="540" y2="120"/>
    <line x1="480" y1="180" x2="500" y2="320"/>
  </g>
  <g fill="#1B2A5E" fill-opacity="0.28">
    <circle cx="60" cy="80" r="3"/>
    <circle cx="180" cy="40" r="3.5"/>
    <circle cx="200" cy="160" r="3"/>
    <circle cx="320" cy="100" r="4"/>
    <circle cx="260" cy="200" r="3"/>
    <circle cx="140" cy="280" r="3"/>
    <circle cx="440" cy="60" r="3"/>
    <circle cx="480" cy="180" r="3.5"/>
    <circle cx="380" cy="260" r="3"/>
    <circle cx="240" cy="340" r="3"/>
    <circle cx="500" cy="320" r="3"/>
    <circle cx="540" cy="120" r="3"/>
  </g>
  <g fill="#3FAB95" fill-opacity="0.32">
    <circle cx="320" cy="100" r="2"/>
    <circle cx="480" cy="180" r="2"/>
    <circle cx="180" cy="40" r="2"/>
  </g>
</svg>
